<?xml version="1.0" standalone="no"?>
<!DOCTYPE svg PUBLIC "-//W3C//DTD SVG 1.1//EN" "http://www.w3.org/Graphics/SVG/1.1/DTD/svg11.dtd" >
<!--
2013-9-30: Created.
-->
<svg>
<metadata>
Created by iconfont
</metadata>
<defs>

<font id="iconfont" horiz-adv-x="1024" >
  <font-face
    font-family="iconfont"
    font-weight="500"
    font-stretch="normal"
    units-per-em="1024"
    ascent="896"
    descent="-128"
  />
    <missing-glyph />
    
    <glyph glyph-name="iconfontrectangle390" unicode="&#58882;" d="M933.875 216.231l0 415.398c0 89.578-72.64 162.247-162.247 162.247l-519.257 0c-89.578 0-162.247-72.64-162.247-162.247l0-519.257c0-89.578 72.64-162.247 162.247-162.247l519.257 0c79.833 0 146.234 57.694 159.739 133.674-43.01 18.503-229.54 99.03-326.659 145.483-73.909-89.539-151.342-143.264-268.058-143.264-116.716 0-194.602 71.798-185.212 159.831 6.163 57.78 45.78 152.112 217.775 135.887 90.651-8.552 132.162-25.462 206.163-49.822 19.016 35.045 34.979 73.643 46.962 114.726l-327.761 0 0 32.452 162.143 0 0 58.413-197.819 0 0 35.697 197.819 0 0 84.151c0 0 1.864 13.205 16.339 13.205l81.13 0 0-97.356 210.937 0 0-35.697-210.938 0 0-58.413 171.995 0c-15.769-64.437-39.718-123.547-69.793-175.278 50.03-18.048 277.485-87.583 277.485-87.583 0 0 0 0 0 0zM323.779 141.593c-123.318 0-142.788 77.885-136.298 110.337s42.188 74.64 110.743 74.64c78.833 0 149.316-20.114 234.033-61.377-59.424-77.44-132.575-123.6-208.477-123.6z"  horiz-adv-x="1025" />

    
    <glyph glyph-name="weixin" unicode="&#58927;" d="M693.12 548.736c11.776 0 23.36-0.896 35.008-2.176-31.36 146.048-187.456 254.528-365.696 254.528C163.2 801.088 0 665.344 0 492.864c0-99.52 54.272-181.248 145.024-244.736L108.8 139.136l126.72 63.488c45.312-8.896 81.664-18.112 126.912-18.112 11.392 0 22.656 0.512 33.792 1.344-7.04 24.256-11.2 49.6-11.2 76.032C385.088 420.224 521.024 548.736 693.12 548.736zM498.304 646.976c27.392 0 45.376-17.984 45.376-45.248 0-27.136-17.984-45.312-45.376-45.312-27.072 0-54.336 18.176-54.336 45.312C443.968 629.056 471.168 646.976 498.304 646.976zM244.672 556.416c-27.2 0-54.592 18.176-54.592 45.312 0 27.264 27.392 45.248 54.592 45.248S289.92 629.056 289.92 601.728C289.92 574.592 271.872 556.416 244.672 556.416zM1024 266.24c0 144.896-145.024 262.976-307.904 262.976-172.48 0-308.224-118.144-308.224-262.976 0-145.28 135.808-262.976 308.224-262.976 36.096 0 72.512 9.024 108.736 18.112l99.392-54.528-27.264 90.624C969.728 112.128 1024 184.512 1024 266.24zM616.128 311.616c-17.984 0-36.224 17.92-36.224 36.224 0 18.048 18.24 36.224 36.224 36.224 27.52 0 45.376-18.176 45.376-36.224C661.504 329.536 643.648 311.616 616.128 311.616zM815.488 311.616c-17.856 0-36.032 17.92-36.032 36.224 0 18.048 18.112 36.224 36.032 36.224 27.264 0 45.376-18.176 45.376-36.224C860.864 329.536 842.752 311.616 815.488 311.616z"  horiz-adv-x="1024" />

    
    <glyph glyph-name="weibo" unicode="&#58888;" d="M2.778359 896zM763.377135 393.466074q-15.744776 3.155041-20.445007 9.433743t-1.57752 11.548515l3.15504 5.237482q1.04027 1.04027 2.114772 3.155041t4.197212 8.929773 4.733512 13.630005 2.61779 16.785046-0.5363 18.900768-6.311983 19.404738-13.126986 18.900768q-14.703556 14.703556-38.305506 18.900768t-47.202949 0.5363-44.582307-9.433744-34.612263-11.012215l-13.630005-6.311983q-10.507294-3.155041-17.323247-4.197213t-10.507294 0.5363-5.774733 3.155041-1.57752 7.352253 1.040269 9.970044 2.61779 13.126986 3.155041 14.167256q0 12.588784-1.57752 23.600048t-6.815003 24.641269-15.208476 22.023478-25.17947 13.630005-39.346727 3.155041-54.554251-12.588784q-36.727034-12.588784-74.494339-37.231004t-65.564564-51.397309-50.89429-51.935511-35.686765-40.924246l-11.548515-16.785046q-34.612263-45.120508-51.397309-90.240066t-15.744776-68.185207v-22.023479q6.311984-50.357039 30.952302-90.240065t58.750513-64.524295 80.269071-41.964516 88.662545-25.179471 89.703765-11.012215q77.651281-6.311984 161.042112 12.052485t155.269281 63.484025T849.383855 202.604166q17.826266 36.727034 18.364468 69.258758t-11.012215 52.97578-29.912032 36.190734-34.612263 23.09703-28.83753 9.433743zM443.405781 67.183686q-113.303814-5.237482-192.500285 44.079288t-79.19457 124.852328q0 74.494338 78.691551 128.51229t193.036585 59.287764 193.036585-37.767304 78.69155-117.500075q0-75.53651-80.269071-135.864543t-191.459064-65.564565zM412.99073 357.813541q-30.415051-3.155041-54.554252-14.167256t-37.767304-25.17947-23.097029-30.415051-13.126986-31.993522-4.733512-28.837531-1.04027-20.445007l1.04027-8.393474v-4.197212q0-3.155041 2.114771-12.588784t5.774733-17.323248 12.052484-17.323247 19.941989-15.744777q69.258758-33.571993 129.04859-20.445007t96.517817 60.327083q14.703556 17.826266 19.404737 44.079287t-2.114771 52.975781-23.600048 48.779518-49.820739 34.109245-76.073761 6.815002z m-37.769206-198.308299q-6.311984-1.04027-12.052484-0.5363t-10.507294 2.114771-9.433744 3.65806-7.855272 5.774733-5.774733 7.352253-4.197212 8.393474-1.577521 9.970043q0 11.548515 6.311984 22.559779t17.323248 18.900768 24.641268 8.929774q9.433743 1.04027 18.364468-0.5363t15.208477-5.237482 11.012215-8.393474 6.815002-11.012215 2.114771-13.630005q0-11.548515-6.815002-22.023479t-18.364468-17.826266-25.179471-8.393474z m89.166515 75.53651q-7.352253-5.237482-15.208476-4.733513t-11.012215 6.815003l-2.114771 4.197212q-1.04027 2.114771-1.04027 4.197213v4.197212q0 3.155041 1.04027 5.237482l2.114771 4.197212q1.04027 2.114771 3.155041 3.155041l3.155041 4.197213q8.393474 6.311984 16.248746 5.237482t11.012214-8.393474q3.155041-4.197212 2.617791-9.433744t-3.155041-9.970043-6.815003-8.929774z m372.443165 219.289606q6.311984 0 11.548515 3.155041t8.393474 7.855272 4.197212 9.970043q1.04027 1.04027 1.04027 3.155041 12.588784 119.615797-83.929984 136.400843-28.334511 5.237482-52.471811 1.04027-7.352253 0-12.588784-3.65806t-8.929774-9.433743-3.658059-12.052485q0-10.507294 7.352253-17.826266t17.826266-7.352253q81.847542 18.900768 88.125294-52.471811 2.114771-17.826266-2.114771-33.571993 0-10.507294 7.352253-17.826267t17.826267-7.352253z m-17.826266 295.833104q-46.160778 10.507294-123.812059-4.197212-1.04027 0-2.114771-1.04027l-1.04027-2.114771-1.04027-1.040269q-11.548515-3.155041-18.900768-13.126986t-7.352253-21.518559q0-15.744776 10.507294-26.21974t25.179471-10.507294h3.155041q1.04027 0 4.733512 1.04027t7.855272 1.57752 8.929774 2.114771 8.393474 3.155041 14.167255 1.577521 25.715771-1.577521 33.571993-7.855272 36.727034-15.744776 36.727035-26.21974 31.993522-38.808525q27.294242-61.906505 10.507294-119.615797 0-1.04027-0.5363-2.114771t-1.57752-5.237482-2.114772-7.855272-2.114771-9.433744-1.04027-9.970043q0-9.433743 5.237482-15.744776t13.126987-8.929774 18.364468-2.61779q29.375732 0 34.612263 35.686765 12.588784 40.924247 14.167255 78.15525t-5.237482 65.564565-20.445007 52.97578-31.489552 41.964517-39.883026 31.489552-42.501768 22.559778-42.501767 13.630005z"  horiz-adv-x="1049" />

    
    <glyph glyph-name="QQ" unicode="&#58890;" d="M909.824 231.424C891.392 342.016 814.08 414.72 814.08 414.72c11.264 100.864-29.696 118.784-29.696 118.784-8.192 311.296-266.752 305.664-272.384 305.664-5.632 0-264.192 5.632-272.384-305.664 0 0-40.448-17.92-29.696-118.784 0 0-77.312-72.704-95.744-183.296 0 0-9.728-187.392 88.576-23.04 0 0 22.016-62.464 62.464-118.784 0 0-72.704-25.6-66.56-91.648 0 0-2.56-73.728 154.624-68.608 0 0 110.592 8.704 143.872 57.344h29.184c33.28-48.64 143.872-57.344 143.872-57.344 157.184-5.12 154.624 68.608 154.624 68.608 6.144 66.048-66.56 91.648-66.56 91.648 40.448 56.32 62.464 118.784 62.464 118.784 98.816-164.352 89.088 23.04 89.088 23.04z"  horiz-adv-x="1024" />

    
    <glyph glyph-name="jian" unicode="&#58880;" d="M512.154 818.817c-246.164 0-446.442-200.277-446.442-446.442 0-246.166 200.277-446.442 446.442-446.442 246.165 0 446.442 200.276 446.442 446.442-0.001 246.165-200.278 446.442-446.442 446.442zM512.154-18.262c-215.4 0-390.637 175.237-390.637 390.639 0 215.4 175.236 390.637 390.637 390.637 215.402 0 390.636-175.236 390.636-390.637 0-215.403-175.236-390.639-390.636-390.639zM679.569 400.278l-334.831 0c-15.423 0-27.903-12.479-27.903-27.902 0-15.396 12.479-27.903 27.903-27.903l334.831 0c15.423 0 27.903 12.507 27.903 27.903 0 15.422-12.48 27.902-27.903 27.902z"  horiz-adv-x="1024" />

    
    <glyph glyph-name="14" unicode="&#58892;" d="M601.6-128 102.4-128c-19.2 0-32 12.8-32 32l0 960C70.4 883.2 83.2 896 102.4 896l825.6 0c19.2 0 32-12.8 32-32l0-640c0-19.2-12.8-32-32-32s-32 12.8-32 32L896 832 134.4 832l0-896 473.6 0c19.2 0 32-12.8 32-32S620.8-128 601.6-128zM729.6 620.8 294.4 620.8c-19.2 0-32 12.8-32 32s12.8 32 32 32l428.8 0c19.2 0 32-12.8 32-32S742.4 620.8 729.6 620.8zM729.6 403.2 294.4 403.2c-19.2 0-32 12.8-32 32s12.8 32 32 32l428.8 0c19.2 0 32-12.8 32-32S742.4 403.2 729.6 403.2zM601.6-128c-6.4 0-6.4 0-12.8 0-12.8 6.4-19.2 19.2-19.2 32l0 320c0 19.2 12.8 32 32 32l320 0c12.8 0 25.6-6.4 32-19.2 6.4-12.8 0-25.6-6.4-32l-320-320C620.8-121.6 614.4-128 601.6-128zM633.6 192l0-211.2 211.2 211.2L633.6 192z"  horiz-adv-x="1024" />

    
    <glyph glyph-name="jia" unicode="&#58936;" d="M825.6 422.4 544 422.4l0 275.2c0 19.2-12.8 32-32 32S480 716.8 480 697.6l0-281.6-275.2 0C179.2 416 166.4 403.2 166.4 384c0-19.2 12.8-32 32-32l275.2 0 0-275.2c0-19.2 12.8-32 32-32 19.2 0 32 12.8 32 32L537.6 352l275.2 0c19.2 0 32 12.8 32 32S844.8 422.4 825.6 422.4zM512 896C230.4 896 0 665.6 0 384s230.4-512 512-512 512 230.4 512 512S793.6 896 512 896zM512-57.6c-243.2 0-441.6 198.4-441.6 441.6S268.8 825.6 512 825.6s441.6-198.4 441.6-441.6S755.2-57.6 512-57.6z"  horiz-adv-x="1024" />

    
    <glyph glyph-name="sousuo" unicode="&#58943;" d="M716.29895 89.191379C641.509798 33.177824 548.629446 0 448 0 200.576432 0 0 200.576435 0 448 0 695.423568 200.576432 896 448 896 695.423565 896 896 695.423568 896 448 896 347.370554 862.822176 254.490202 806.808621 179.70105L946.011456 40.498214C970.889978 15.619686 970.970976-24.635366 945.803174-49.803174 920.809619-74.79673 879.927322-74.436992 855.501786-50.011456L716.29895 89.191379ZM448 128C624.73112 128 768 271.26888 768 448 768 624.73112 624.73112 768 448 768 271.26888 768 128 624.73112 128 448 128 271.26888 271.26888 128 448 128Z"  horiz-adv-x="1024" />

    
    <glyph glyph-name="tuichu" unicode="&#58937;" d="M689.664 723.008l0-133.781333c89.28-58.176 148.394667-158.698667 148.394667-273.216 0-180.032-145.984-325.994667-326.058667-325.994667-180.032 0-326.016 145.962667-326.016 325.994667 0 101.781333 46.634667 192.618667 119.722667 252.437333L305.706667 709.226667C164.373333 634.901333 67.968 486.784 67.968 316.053333 67.968 70.826667 266.794667-128 512.042667-128c245.205333 0 443.989333 198.826667 443.989333 444.053333C956.010667 498.112 846.464 654.464 689.664 723.008zM577.344 436.010667c0-28.693333-29.248-51.989333-65.344-51.989333l0 0c-36.053333 0-65.322667 23.274667-65.322667 51.989333L446.677333 844.010667C446.677333 872.725333 475.946667 896 512 896l0 0c36.096 0 65.344-23.274667 65.344-51.989333L577.344 436.010667z"  horiz-adv-x="1024" />

    
    <glyph glyph-name="jiantouzuo" unicode="&#58897;" d="M511.999488 826.068278c-244.161653 0-442.086391-197.895139-442.086391-442.068278 0-244.10867 197.924738-442.068278 442.086391-442.068278 244.162676 0 442.086391 197.959607 442.086391 442.068278C954.085879 628.173139 756.162165 826.068278 511.999488 826.068278L511.999488 826.068278zM511.999488 30.345378c-195.311107 0-353.669113 158.349471-353.669113 353.654622 0 195.326641 158.356983 353.655645 353.669113 353.655645 195.31213 0 353.669113-158.329005 353.669113-353.655645C865.668601 188.694849 707.312642 30.345378 511.999488 30.345378L511.999488 30.345378zM481.434126 390.000668l159.305626-189.843766c8.094684-9.648754 6.821639-24.197098-2.827511-32.292474l-30.739331-25.794479c-9.669616-8.115841-24.19809-6.842849-32.314264 2.828418l-191.599423 228.330312c-4.058599 4.835122-5.763497 10.900258-5.245683 16.771989-0.517814 5.850242 1.187084 11.915377 5.245683 16.750499l191.599423 228.329289c8.117197 9.670244 22.644647 10.94426 32.314264 2.828418l30.739331-25.794479c9.649149-8.094352 10.922195-22.642696 2.827511-32.292474L481.434126 390.000668 481.434126 390.000668zM481.434126 390.000668"  horiz-adv-x="1024" />

    
    <glyph glyph-name="shouhuoziliao" unicode="&#59032;" d="M443.783851 329.428104 276.915355 329.428104c-15.328104 0-27.7756-12.392238-27.7756-27.828812 0-15.328104 12.447497-27.829835 27.7756-27.829835l166.868495 0c15.382339 0 27.829835 12.501732 27.829835 27.829835C471.614709 317.034842 459.220425 329.428104 443.783851 329.428104zM276.915355 607.724411l445.164802 0c15.383362 0 27.828812 12.501732 27.828812 27.829835 0 15.436574-12.391215 27.828812-27.828812 27.828812L276.915355 663.383058c-15.328104 0-27.7756-12.392238-27.7756-27.828812C249.139755 620.226143 261.587252 607.724411 276.915355 607.724411zM276.915355 440.746422l445.164802 0c15.383362 0 27.828812 12.501732 27.828812 27.829835 0 15.436574-12.391215 27.828812-27.828812 27.828812L276.915355 496.405069c-15.328104 0-27.7756-12.392238-27.7756-27.828812C249.139755 453.248154 261.587252 440.746422 276.915355 440.746422zM859.270726 208.923566l1.956561-0.10847 0 84.630493 0.056282 0L861.28357 749.155561c0 44.13622-39.732933 80.010265-88.543615 80.010265L226.419288 829.165826c-48.756447 0-88.543615-35.875069-88.543615-80.010265l0-442.011996 0 0 0-233.073336c0-44.13622 39.678698-80.010265 88.48938-80.010265l354.502943 0c32.286334-33.80799 77.56354-55.224766 127.949091-55.224766 97.731882 0 177.306218 79.629595 177.306218 177.414689C886.122281 150.329053 876.013039 181.910329 859.270726 208.923566zM226.365052 49.718611c-17.828041 0-32.830733 11.143805-32.830733 24.351618L193.53432 293.445588l0 0L193.53432 749.155561c0 13.207813 15.111163 24.351618 32.884968 24.351618l546.319643 0c17.828041 0 32.883945-11.143805 32.883945-24.351618l0-442.011996-0.054235 0 0-42.614563c-27.883047 18.262946-61.040215 29.025057-96.752578 29.025057-97.78407 0-177.304172-79.521125-177.304172-177.305195 0-23.536043 4.782933-45.930075 13.153578-66.531276L226.365052 49.717587zM708.817086-5.506155c-67.072605 0-121.645524 54.68139-121.645524 121.755018 0 67.073628 54.57292 121.645524 121.645524 121.645524 67.074651 0 121.647571-54.571896 121.647571-121.645524C830.464657 49.175235 775.891737-5.506155 708.817086-5.506155zM768.390903 166.472731l-82.130555-82.075297-42.777269 42.723034c-4.239558 4.239558-11.088546 4.239558-15.328104 0-4.239558-4.240581-4.239558-11.088546 0-15.328104l50.441832-50.441832c4.239558-4.239558 11.088546-4.239558 15.328104 0l89.793072 89.794096c4.241604 4.240581 4.241604 11.088546 0 15.328104C779.479449 170.712289 772.629437 170.712289 768.390903 166.472731z"  horiz-adv-x="1024" />

    
    <glyph glyph-name="chuizi" unicode="&#59438;" d="M509.911432 830.90033c245.415432 0.033769 445.472817-199.11492 445.37765-443.353551-0.098237-249.607918-198.62271-447.453938-448.672696-447.143876-243.12118 0.297782-441.790962 200.443172-441.827801 445.11159C64.748676 631.700475 263.800151 830.865537 509.911432 830.90033z m256.975723-274.468119a3995.396721 3995.396721 0 0 0 2.084474 4.987594c-4.597715 3.260254-9.16166 6.568602-13.799284 9.775644-48.090275 33.250288-100.267635 58.080813-155.789159 76.212776-81.407078 26.581402-164.638711 31.213909-249.120824 21.342074-12.458753-1.454118-21.657252-7.325849-21.647019-21.281699 0.013303-19.96982-0.38681-40.075741 1.941212-59.818387 0.601704-5.106298 10.390651-12.44545 16.492626-13.012361 25.929556-2.407839 52.057633-2.723018 78.117148-3.681856 34.860972-1.284249 56.918337-23.137976 56.226583-57.487296-1.147126-56.891731-3.210112-113.76709-4.757351-170.653705-1.882883-69.328995-3.861958-138.655943-5.344728-207.996194-0.783853-36.807301 13.555737-65.75868 47.25321-83.001389 15.001669-7.67582 25.322735-1.154289 26.443256 15.782451 0.312108 4.722558 0.079818 9.481955 0.074701 14.226003-0.161682 143.468552-0.410346 286.931988-0.436952 430.397471-0.008186 40.274262 25.232684 62.207807 65.173349 57.657164 16.477276-1.877767 33.006741-3.334955 49.53416-4.717442 35.842323-2.99931 71.701019-5.829775 107.554598-8.730848z"  horiz-adv-x="1024" />

    
    <glyph glyph-name="jiantoushang" unicode="&#58925;" d="M910.222222 99.555556c-17.066667 0-34.133333 5.688889-45.511111 17.066666L551.822222 486.4c-11.377778 5.688889-17.066667 11.377778-34.133333 11.377778-5.688889 0-22.755556-5.688889-28.444445-11.377778l-329.955555-364.088889c-22.755556-22.755556-56.888889-22.755556-79.644445-5.688889-22.755556 22.755556-22.755556 56.888889-5.688888 79.644445l329.955555 364.088889c28.444444 34.133333 73.955556 51.2 119.466667 51.2s85.333333-22.755556 119.466666-56.888889l312.888889-364.088889c22.755556-22.755556 17.066667-56.888889-5.688889-79.644445-11.377778-5.688889-28.444444-11.377778-39.822222-11.377777z"  horiz-adv-x="1024" />

    
    <glyph glyph-name="wenhao" unicode="&#58881;" d="M455.408941 101.07482400000004h84.87153v84.871529h-84.87153v-84.871529z m130.168471 265.938823c-42.465882-28.310588-62.253176-62.223059-62.253177-99.026823v-25.449412H455.378824v31.111529c-2.831059 50.928941 22.648471 96.195765 67.915294 130.168471 50.898824 36.743529 76.378353 73.547294 70.716235 107.52-5.662118 50.898824-33.942588 79.209412-87.702588 82.04047-62.253176 2.831059-101.857882-33.972706-115.983059-110.351058l-76.408471 19.817411c22.648471 113.152 93.364706 166.912 206.546824 164.080941 99.026824-5.662118 149.955765-53.76 161.249882-147.124705 2.861176-56.591059-28.280471-107.52-96.165647-152.786824zM512 836.698353C263.017412 836.668235 59.331765 632.9825880000001 59.331765 384c0-249.012706 203.685647-452.728471 452.668235-452.728471S964.668235 135.01741200000004 964.668235 384 761.012706 836.668235 512 836.668235z m0-961.957647C231.905882-125.28941199999997 2.710588 103.90588200000002 2.710588 384 2.710588 664.094118 231.905882 893.289412 512 893.289412S1021.289412 664.094118 1021.289412 384 792.094118-125.28941199999997 512-125.28941199999997z"  horiz-adv-x="1024" />

    
    <glyph glyph-name="wj-shd" unicode="&#59179;" d="M609.3 608H225.7c-17.7 0-32 14.3-32 32s14.3 32 32 32h383.6c17.7 0 32-14.3 32-32s-14.3-32-32-32zM609.3 415.9H225.7c-17.7 0-32 14.3-32 32s14.3 32 32 32h383.6c17.7 0 32-14.3 32-32s-14.3-32-32-32zM417.5 223.89999999999998H225.7c-17.7 0-32 14.3-32 32s14.3 32 32 32h191.8c17.7 0 32-14.3 32-32s-14.3-32-32-32zM159.8 63.799999999999955c-17.6 0-31.9 14.3-31.9 32V736c0 17.7 14.3 32 31.9 32h513.9c17.6 0 31.9-14.3 31.9-32v-288.1c0-17.7 14.3-32 31.9-32 17.6 0 31.9 14.3 31.9 32V768c0 35.4-28.6 64-63.9 64H127.9C92.6 832 64 803.3 64 768v-704.2c0-35.4 28.6-64 63.9-64h480.8c17.6 0 31.9 14.3 31.9 32s-14.3 32-31.9 32H159.8zM950.6-54.60000000000002c-12.5-12.5-32.8-12.5-45.3 0L701.6 149.10000000000002l45.3 45.3 203.8-203.7c12.4-12.5 12.4-32.8-0.1-45.3zM654.1 310.5l49.7-49.7-14.3-53.2-53.3-14.3-49.7 49.7c-8.7-32.1-0.4-67.9 24.8-93.1 37.5-37.5 98.3-37.5 135.9 0 37.5 37.5 37.5 98.3 0 135.8-25.2 25.2-60.9 33.4-93.1 24.8z"  horiz-adv-x="1024" />

    
    <glyph glyph-name="kefu" unicode="&#58926;" d="M515.6 125.8c48.4 0 91.3 31.3 106.2 77.4 1 3.1-0.4 6.4-3.4 7.8-3 1.3-6.5 0.2-8.1-2.6-0.2-0.3-17.2-27.8-83.7-36.8-9.5-1.3-19.2-2-28.8-2-46.5 0-67.3 17.6-67.5 17.7-2.4 2.1-5.9 2.1-8.4 0.1-2.4-2-3-5.6-1.3-8.3 20.4-32.8 56.7-53.2 95-53.3zM808.3 497.1c-45.7 123.7-164 212.1-303.2 212.1-138.6 0-256.6-87.6-302.6-210.5-2.4 2.7-4.9 5.3-7.6 7.6C221 656.1 349.9 770 505.3 770c154.7 0 283.2-112.8 310.2-261.5-2.8-3.6-5.2-7.4-7.2-11.4z m64.6 40.5c-0.6 0-1.1-0.1-1.7-0.1C832.3 706 683.5 831.7 505.2 831.7 322 831.7 169.8 699 136.1 523.5c-33.5-6.2-57.9-35.5-57.7-69.6v-139.5c0-39.1 31.4-70.8 70.1-70.8 21.8 0 41.1 10.3 53.9 26.1C233.4 188 296 122 376.2 87c1 2 2.2 3.9 3.5 5.7 1.3 1.6 2.7 3 3.9 3 1.2 0 2.4-0.4 3.4-1.1-18.5 13.8-85.2 84.4-99.7 183.1-6.3 43.4 26.2 86.1 64.1 93.1 60.8 11.3 121.3 24.2 182.1 35.3 38.7 7 65.1 28.3 81.2 63.6 3.8 8.3 9.3 25 11.8 49 0.6 3.6 3.7 6.3 7.4 6.3 2.4 0 4.6-1.2 6-3.1l1.7 1c24-34.8 71.5-111.9 78.3-193.1 7.8-92.9 3.5-156.5-67.6-221.6l-0.3-0.3c-1-1.1-1.6-2.5-1.6-4 0-1.9 1-3.7 2.6-4.7 0.6-0.2 1.2-0.6 1.8-0.8 0.5-0.1 0.9-0.2 1.4-0.3 0.5 0 0.9 0.1 1.3 0.3 1 0.5 2 1.1 3 1.7 72.6 40.1 127.2 106.4 152.5 185.4a72.29 72.29 0 0 1 45.2-30.2c-30-136.9-152.2-222.7-303.5-235.6-9.6 23.4-32.4 38.6-57.6 38.5-34.2 0-62-27.1-62-60.5s27.8-60.5 62-60.5c26.6-0.1 50.3 16.9 58.7 42.1 175.1 14.2 315.5 118.3 344.8 280 26.7 11 44.1 37 44.1 65.9V466.1c0.2 39.5-32 71.5-71.8 71.5z"  horiz-adv-x="1024" />

    
    <glyph glyph-name="gouwu" unicode="&#59373;" d="M774.30784 590.336h-74.9568c0 103.5264-83.92704 187.55584-187.35104 187.55584s-187.35104-84.02944-187.35104-187.55584h-74.9568c-41.20576 0-74.5472-33.77152-74.5472-75.03872L174.73536 65.1264a75.20256 75.20256 0 0 1 74.9568-75.03872h524.5952a75.20256 75.20256 0 0 1 74.9568 75.03872V515.2768a75.20256 75.20256 0 0 1-74.9568 75.03872zM512 702.8736a112.3328 112.3328 0 0 0 112.4352-112.5376H399.5648a112.3328 112.3328 0 0 0 112.4352 112.5376H512z m0-375.15264c-103.424 0-187.35104 84.02944-187.35104 187.5968h74.93632a112.3328 112.3328 0 0 1 112.4352-112.55808 112.3328 112.3328 0 0 1 112.39424 112.5376h74.9568c0-103.54688-83.94752-187.57632-187.37152-187.57632z"  horiz-adv-x="1024" />

    
    <glyph glyph-name="ziyuan" unicode="&#58950;" d="M989.582222 22.186667C944.924444 83.626667 717.368889 58.026667 682.666667 128c-68.835556 138.808889-40.675556 113.777778 3.982222 147.342222s40.106667 117.191111 65.991111 147.342222 38.115556 118.613333 28.444444 151.608889c-13.084444 43.804444-32.995556 19.911111-36.124444 53.191111-6.542222 71.395556 11.377778 129.991111-28.444444 164.693334S628.906667 896 549.831111 896A187.448889 187.448889 0 0 1 455.111111 867.555556c-170.666667 18.204444-170.666667-168.675556-176.071111-240.071112-3.128889-33.28-23.04-9.386667-36.124444-53.191111-9.671111-32.995556 2.275556-120.888889 28.444444-151.608889s23.893333-115.2 65.991111-147.342222 72.817778-8.533333 3.982222-147.342222c-34.702222-69.973333-262.257778-44.373333-306.915555-105.813333C0-24.462222 0-128 0-128h1024s0 103.537778-34.417778 150.186667z"  horiz-adv-x="1024" />

    
    <glyph glyph-name="youhuiquan" unicode="&#58891;" d="M821.333 757.333c64.8 0 117.334-52.533 117.334-117.333v-149.333a32 32 0 0 0-32-32 74.667 74.667 0 0 1 0-149.334 32 32 0 0 0 32-32V128c0-64.8-52.534-117.333-117.334-117.333H202.667c-64.8 0-117.334 52.533-117.334 117.333V277.333a32 32 0 0 0 32 32 74.667 74.667 0 0 1 0 149.334 32 32 0 0 0-32 32V640c0 64.8 52.534 117.333 117.334 117.333h618.666z m0-64H202.667A53.333 53.333 0 0 1 149.333 640v-121.045C210.485 504.512 256 449.568 256 384c0-65.568-45.515-120.512-106.667-134.955V128a53.333 53.333 0 0 1 53.334-53.333h618.666A53.333 53.333 0 0 1 874.667 128V249.045C813.515 263.488 768 318.432 768 384c0 65.568 45.515 120.512 106.667 134.955V640a53.333 53.333 0 0 1-53.334 53.333z m-436.48-124.746a32 32 0 0 0 45.067-4.096L512 465.984l82.08 98.507a32 32 0 1 0 49.173-40.982l-71.84-86.176h47.254a32 32 0 0 0 31.946-30.122l0.054-1.878a32 32 0 0 0-32-32h-69.334v-42.666h69.334a32 32 0 0 0 31.946-30.123l0.054-1.877a32 32 0 0 0-32-32h-69.334V224a32 32 0 0 0-30.122-31.947l-1.878-0.053a32 32 0 0 0-32 32v42.667h-80a32 32 0 0 0-31.946 30.122l-0.054 1.878a32 32 0 0 0 32 32h80v42.666h-80a32 32 0 0 0-31.946 30.123l-0.054 1.877a32 32 0 0 0 32 32h47.232l-71.818 86.187a32 32 0 0 0 2.581 43.723z"  horiz-adv-x="1024" />

    
    <glyph glyph-name="dingdan" unicode="&#58884;" d="M821.77-64.19H202.23c-39.49 0-71.62 32.13-71.62 71.62V760.57c0 39.49 32.13 71.62 71.62 71.62h619.53c39.49 0 71.62-32.13 71.62-71.62v-753.14c0-39.49-32.12-71.62-71.61-71.62z m-603.62 87.53h587.7V744.66h-587.7v-721.32zM683.68 538.64h-342.4c-12.09 0-21.89 9.8-21.89 21.89v43.61c0 12.09 9.8 21.89 21.89 21.89h342.39c12.09 0 21.89-9.8 21.89-21.89v-43.61c0-12.09-9.8-21.89-21.88-21.89zM682.72 340.31h-342.4c-12.09 0-21.89 9.8-21.89 21.89v43.61c0 12.09 9.8 21.89 21.89 21.89h342.39c12.09 0 21.89-9.8 21.89-21.89v-43.61c0-12.09-9.8-21.89-21.88-21.89zM525.48 141.97H340.32c-12.09 0-21.89 9.8-21.89 21.89v43.61c0 12.09 9.8 21.89 21.89 21.89h185.15c12.09 0 21.89-9.8 21.89-21.89v-43.61c0.01-12.09-9.79-21.89-21.88-21.89z"  horiz-adv-x="1024" />

    
    <glyph glyph-name="cha1" unicode="&#58889;" d="M514.5-93.6c-64.5 0-127.1 12.6-186.1 37.6-56.9 24.1-108 58.5-151.9 102.4-43.9 43.9-78.3 95-102.4 151.9-24.9 58.9-37.6 121.5-37.6 186.1s12.6 127.1 37.6 186.1c24.1 56.9 58.5 108 102.4 151.9s95 78.3 151.9 102.4c59 24.9 121.6 37.6 186.1 37.6s127.1-12.6 186.1-37.6c56.9-24.1 108-58.5 151.9-102.4 43.9-43.9 78.3-95 102.4-151.9 24.9-58.9 37.6-121.5 37.6-186.1s-12.6-127.1-37.6-186.1c-24.1-56.9-58.5-108-102.4-151.9-43.9-43.9-95-78.3-151.9-102.4-59-24.9-121.6-37.6-186.1-37.6z m0 896c-230.5 0-418-187.5-418-418s187.5-418 418-418 418 187.5 418 418c-0.1 230.5-187.6 418-418 418zM329.7 169.9c-7.7 0-15.4 2.9-21.3 8.8-11.7 11.7-11.6 30.7 0.1 42.4L659 569.8c11.7 11.7 30.7 11.6 42.4-0.1s11.6-30.7-0.1-42.4L350.9 178.7c-5.9-5.9-13.5-8.8-21.2-8.8zM688.3 170.6c-7.7 0-15.4 2.9-21.3 8.8L318.3 530c-11.7 11.7-11.6 30.7 0.1 42.4s30.7 11.6 42.4-0.1l348.7-350.5c11.7-11.7 11.6-30.7-0.1-42.4-5.8-5.9-13.4-8.8-21.1-8.8z"  horiz-adv-x="1024" />

    
    <glyph glyph-name="jiantou" unicode="&#59526;" d="M512 832c247.424 0 448-200.576 448-448S759.424-64 512-64 64 136.576 64 384 264.576 832 512 832z m0-68c-209.868 0-380-170.132-380-380s170.132-380 380-380 380 170.132 380 380-170.132 380-380 380z m-48.516-212.181l0.435-0.29 0.435-0.3L664.38 411.172c9.168-6.42 13.94-16.775 13.635-27.183 0.301-10.245-4.318-20.438-13.204-26.877l-0.43-0.307-200.026-140.059c-14.477-10.137-34.43-6.618-44.567 7.859-10.035 14.332-6.687 34.032 7.428 44.26l0.43 0.307 163.976 114.817-163.975 114.816c-14.477 10.137-17.996 30.09-7.859 44.567 9.935 14.19 29.3 17.851 43.697 8.448z"  horiz-adv-x="1024" />

    


  </font>
</defs>
</svg>
